<svg width="45" height="44" viewBox="0 0 45 44" fill="none" xmlns="http://www.w3.org/2000/svg">
<circle cx="22.9849" cy="22" r="21" transform="rotate(-180 22.9849 22)" fill="#1F1F1F" stroke="#B9836D" stroke-width="2"/>
<path d="M20.1849 29.4005C19.8535 29.8423 19.943 30.4691 20.3849 30.8005C20.8267 31.1319 21.4535 31.0423 21.7849 30.6005L20.1849 29.4005ZM26.9849 22.0005L27.7849 22.6005C28.0515 22.2449 28.0515 21.756 27.7849 21.4005L26.9849 22.0005ZM21.7849 13.4005C21.4535 12.9587 20.8267 12.8691 20.3849 13.2005C19.943 13.5319 19.8535 14.1587 20.1849 14.6005L21.7849 13.4005ZM21.7849 30.6005L27.7849 22.6005L26.1849 21.4005L20.1849 29.4005L21.7849 30.6005ZM27.7849 21.4005L21.7849 13.4005L20.1849 14.6005L26.1849 22.6005L27.7849 21.4005Z" fill="#B9836D"/>
</svg>
