<svg width="45" height="44" viewBox="0 0 45 44" fill="none" xmlns="http://www.w3.org/2000/svg">
<circle cx="22.3477" cy="22" r="21" fill="#1F1F1F" stroke="#4E4E4E" stroke-width="2"/>
<path d="M25.1496 14.6C25.481 14.1582 25.3914 13.5314 24.9496 13.2C24.5078 12.8686 23.881 12.9582 23.5496 13.4L25.1496 14.6ZM18.3496 22L17.5496 21.4C17.2829 21.7556 17.2829 22.2444 17.5496 22.6L18.3496 22ZM23.5496 30.6C23.881 31.0418 24.5078 31.1314 24.9496 30.8C25.3914 30.4686 25.481 29.8418 25.1496 29.4L23.5496 30.6ZM23.5496 13.4L17.5496 21.4L19.1496 22.6L25.1496 14.6L23.5496 13.4ZM17.5496 22.6L23.5496 30.6L25.1496 29.4L19.1496 21.4L17.5496 22.6Z" fill="#4E4E4E"/>
</svg>
